<?xml version="1.0" standalone="no"?>
<!DOCTYPE svg PUBLIC "-//W3C//DTD SVG 20010904//EN"
 "http://www.w3.org/TR/2001/REC-SVG-20010904/DTD/svg10.dtd">
<svg version="1.0" xmlns="http://www.w3.org/2000/svg"
 width="400.000000pt" height="400.000000pt" viewBox="0 0 400.000000 400.000000"
 preserveAspectRatio="xMidYMid meet">

<g transform="translate(0.000000,400.000000) scale(0.100000,-0.100000)"
fill="#000000" stroke="none">
<path d="M2061 3266 l-1 -179 59 -126 c62 -131 79 -198 63 -242 -12 -30 -109
-139 -124 -139 -8 0 -9 71 -4 225 4 124 5 225 2 225 -3 0 -15 -18 -26 -40 -22
-43 -52 -64 -81 -57 -18 5 -19 0 -13 -76 12 -181 20 -352 17 -360 -3 -4 -38
-30 -79 -57 -41 -28 -74 -55 -74 -60 0 -25 26 -16 97 31 136 91 253 193 296
259 10 13 17 20 17 16 0 -5 -12 -25 -26 -45 -52 -71 -152 -151 -329 -266 -66
-43 -121 -79 -123 -80 -5 -4 18 -55 25 -55 5 0 63 44 130 98 172 139 260 181
314 151 20 -10 20 -7 18 133 -1 79 -6 163 -11 187 -5 24 -34 96 -65 160 l-55
116 -9 160 c-13 223 -16 227 -18 21z"/>
<path d="M2000 3083 c-14 -7 -21 -13 -16 -13 5 0 3 -6 -4 -14 -9 -12 -7 -15
12 -13 30 2 58 30 44 43 -7 6 -20 5 -36 -3z"/>
<path d="M2018 3019 c-31 -44 -55 -50 -67 -16 -9 22 -9 21 -16 -6 -5 -20 -3
-33 8 -44 14 -15 18 -15 41 1 23 14 73 93 64 101 -2 1 -15 -15 -30 -36z"/>
<path d="M2108 2475 c-20 -8 -65 -33 -100 -56 -99 -67 -329 -260 -322 -270 7
-12 -4 -19 144 100 81 65 126 95 128 86 2 -8 -6 -25 -18 -37 -42 -44 -69 -104
-89 -194 -44 -203 -122 -325 -240 -374 -17 -7 -28 -16 -25 -21 6 -10 794 -12
820 -2 10 4 -3 16 -43 38 -104 57 -171 180 -208 383 -12 66 -22 95 -35 102 -9
5 -19 8 -21 6 -2 -2 -16 -6 -31 -10 -50 -12 -32 21 57 107 63 61 85 89 85 108
0 49 -32 60 -102 34z m60 -60 c2 -15 -16 -38 -63 -79 l-66 -58 3 68 c3 67 3
67 38 80 49 18 84 14 88 -11z m-58 -226 c0 -6 -12 -28 -27 -48 -50 -70 -153
-125 -181 -97 -12 12 -11 20 6 57 10 24 29 53 41 63 l21 19 1 -34 c1 -19 1
-37 0 -41 -1 -11 17 -10 40 2 12 7 19 21 19 40 0 17 7 33 18 39 23 14 62 14
62 0z m-120 -382 c0 -6 4 -6 13 0 16 13 75 14 82 2 10 -16 -6 -49 -23 -49 -13
0 -14 2 -3 9 11 7 11 9 0 13 -8 3 -19 -2 -25 -11 -10 -13 -14 -13 -28 -2 -9 7
-16 9 -16 3 0 -5 -18 -10 -40 -10 -42 -1 -48 6 -28 26 10 10 10 15 0 21 -9 5
2 8 27 8 23 0 41 -4 41 -10z"/>
<path d="M1972 1790 c0 -14 2 -19 5 -12 2 6 2 18 0 25 -3 6 -5 1 -5 -13z"/>
<path d="M2010 1796 c0 -9 5 -16 10 -16 6 0 10 4 10 9 0 6 -4 13 -10 16 -5 3
-10 -1 -10 -9z"/>
<path d="M1936 1785 c-3 -8 -1 -15 4 -15 6 0 10 7 10 15 0 8 -2 15 -4 15 -2 0
-6 -7 -10 -15z"/>
<path d="M665 1471 c-34 -14 -58 -49 -57 -83 1 -40 43 -79 102 -97 47 -14 59
-30 36 -47 -18 -13 -53 -7 -96 16 -18 10 -25 9 -38 -4 -23 -23 -6 -46 50 -70
83 -34 168 2 168 73 0 46 -25 72 -95 98 -28 10 -51 26 -53 35 -5 24 33 32 69
14 23 -12 36 -13 51 -5 63 34 -65 99 -137 70z"/>
<path d="M934 1363 c-31 -65 -62 -133 -69 -150 l-14 -33 35 0 c27 0 37 5 46
25 10 22 17 25 65 25 47 0 55 -3 65 -25 9 -19 19 -25 45 -25 18 0 33 3 33 8 1
16 -134 292 -142 292 -5 0 -34 -53 -64 -117z m86 -65 c0 -13 -8 -18 -25 -18
-29 0 -28 -2 -13 40 10 31 12 32 25 15 7 -11 13 -27 13 -37z"/>
<path d="M1573 1460 c-76 -34 -105 -125 -67 -207 39 -80 163 -105 219 -43 17
19 17 20 -5 38 -21 17 -26 17 -51 5 -35 -18 -75 -8 -96 24 -49 75 33 168 104
118 19 -13 23 -13 44 4 23 19 24 19 5 40 -17 18 -73 41 -101 41 -5 0 -29 -9
-52 -20z"/>
<path d="M1828 1353 c-87 -185 -84 -173 -43 -173 28 0 38 5 47 25 10 22 17 25
65 25 47 0 55 -3 65 -25 9 -19 19 -25 45 -25 18 0 33 3 33 8 0 16 -134 292
-143 292 -4 0 -35 -57 -69 -127z m87 -45 c6 -25 5 -28 -19 -28 -30 0 -29 -2
-15 39 12 35 24 31 34 -11z"/>
<path d="M1180 1325 l0 -145 35 0 35 0 0 75 c0 41 3 75 8 75 4 0 45 -34 91
-75 46 -41 88 -75 92 -75 5 0 9 65 9 145 l0 145 -35 0 -34 0 -3 -77 -3 -77
-85 77 c-47 42 -91 77 -97 77 -10 0 -13 -36 -13 -145z"/>
<path d="M2080 1325 l0 -145 25 0 c18 0 32 11 50 40 14 22 27 40 30 40 3 0 17
-18 31 -40 24 -35 31 -40 66 -40 l38 0 -45 67 c-25 37 -45 72 -45 78 0 6 20
41 45 78 l45 67 -39 0 c-37 0 -41 -3 -82 -67 l-44 -67 -3 67 -3 67 -34 0 -35
0 0 -145z"/>
<path d="M2350 1440 c0 -29 2 -30 45 -30 l45 0 0 -115 0 -115 30 0 30 0 0 115
0 115 45 0 c43 0 45 1 45 30 l0 30 -120 0 -120 0 0 -30z"/>
<path d="M2630 1325 l0 -145 115 0 115 0 0 30 0 30 -80 0 -80 0 0 30 0 30 65
0 65 0 0 30 0 30 -65 0 c-62 0 -65 1 -65 25 0 23 3 24 78 27 76 3 77 3 80 31
l3 27 -115 0 -116 0 0 -145z"/>
<path d="M2900 1325 l0 -145 35 0 c35 0 35 0 35 45 l0 45 53 -1 c29 -1 63 4
74 12 55 34 57 135 4 176 -10 8 -52 12 -108 13 l-93 0 0 -145z m165 45 c0 -35
0 -35 -47 -38 l-48 -3 0 41 0 41 48 -3 c47 -3 47 -3 47 -38z"/>
<path d="M3180 1325 l0 -145 115 0 115 0 0 30 0 30 -80 0 -80 0 0 30 c0 29 0
29 68 32 64 3 67 4 67 28 0 24 -3 25 -67 28 -65 3 -68 4 -68 27 0 24 2 25 80
25 l80 0 0 30 0 30 -115 0 -115 0 0 -145z"/>
<path d="M2184 1105 c-10 -25 4 -45 30 -45 25 0 39 20 30 45 -4 8 -17 15 -30
15 -14 0 -27 -7 -30 -15z"/>
<path d="M3151 1102 c-7 -13 -6 -23 1 -30 27 -27 75 -2 62 32 -8 22 -51 20
-63 -2z"/>
<path d="M1874 1101 c-2 -2 -4 -69 -4 -148 l0 -143 78 0 c86 0 133 17 165 61
28 38 32 106 10 148 -31 59 -64 75 -160 81 -46 3 -87 3 -89 1z m167 -88 c49
-49 23 -125 -46 -136 -60 -10 -65 -3 -65 77 0 40 3 76 8 80 12 13 84 -1 103
-21z"/>
<path d="M2295 1100 c-2 -4 20 -40 50 -81 53 -72 55 -76 55 -141 l0 -68 35 0
35 0 0 71 c0 69 1 71 55 144 30 41 55 76 55 77 0 3 -59 1 -81 -1 -4 -1 -18
-19 -33 -41 -14 -22 -30 -40 -34 -40 -4 0 -19 18 -34 39 -22 30 -36 40 -63 43
-20 2 -38 1 -40 -2z"/>
<path d="M2624 1101 c-2 -2 -4 -69 -4 -148 l0 -143 113 0 113 0 2 30 2 30 -80
0 -80 0 0 30 0 30 65 0 65 0 0 30 0 30 -65 0 c-63 0 -65 1 -65 25 0 24 2 25
74 25 76 0 88 6 78 42 -3 14 -21 17 -109 20 -58 2 -107 1 -109 -1z"/>
<path d="M2950 1103 c-36 -13 -60 -47 -60 -83 0 -44 16 -60 93 -94 67 -30 77
-56 22 -56 -20 0 -50 7 -67 16 -27 14 -32 14 -46 1 -54 -55 118 -111 186 -60
20 15 28 30 30 59 4 49 -20 74 -93 101 -28 10 -51 26 -53 35 -5 24 33 32 70
14 28 -15 33 -15 55 0 21 13 22 18 11 31 -27 33 -104 52 -148 36z"/>
<path d="M789 1088 c-1 -12 -1 -197 1 -255 0 -22 3 -23 90 -23 49 0 100 5 114
11 50 23 57 103 13 134 -17 12 -19 17 -9 27 20 20 14 67 -13 93 -22 23 -32 25
-110 25 -61 0 -85 -4 -86 -12z m139 -47 c25 -15 9 -45 -28 -52 -19 -4 -38 -5
-42 -3 -10 6 -11 48 -1 57 9 10 55 8 71 -2z m24 -117 c14 -9 9 -42 -8 -48 -9
-3 -33 -6 -55 -6 -36 0 -39 2 -39 28 0 16 3 32 8 36 7 8 77 0 94 -10z"/>
<path d="M1080 955 l0 -145 110 0 110 0 0 30 0 30 -75 0 -75 0 0 30 0 30 65 0
65 0 0 30 0 30 -65 0 c-63 0 -65 1 -65 25 0 24 2 25 75 25 l75 0 0 30 0 30
-110 0 -110 0 0 -145z"/>
<path d="M1350 1055 c-1 -25 -1 -85 -1 -135 0 -49 0 -94 1 -100 0 -6 42 -10
105 -10 l105 0 0 30 0 29 -72 3 -73 3 -3 113 -3 112 -29 0 c-29 0 -30 -2 -30
-45z"/>
<path d="M1600 955 l0 -145 110 0 110 0 0 30 0 30 -75 0 -75 0 0 30 0 30 65 0
65 0 0 30 0 30 -65 0 c-63 0 -65 1 -65 25 0 24 2 25 75 25 l75 0 0 30 0 30
-110 0 -110 0 0 -145z"/>
<path d="M2180 925 l0 -115 35 0 35 0 0 115 0 115 -35 0 -35 0 0 -115z"/>
<path d="M3150 925 l0 -115 33 0 32 0 -2 107 c-1 60 -3 111 -3 116 0 4 -13 7
-30 7 l-30 0 0 -115z"/>
</g>
</svg>
